<svg width="700" height="720" viewBox="0 0 700 720" fill="none" xmlns="http://www.w3.org/2000/svg">
<rect width="700" height="629" transform="translate(0 52)" fill="#8FD2FC"/>
<rect x="31" y="151" width="638" height="192.587" rx="20" fill="white"/>
<rect x="31" y="361.675" width="195.736" height="126.618" rx="20" fill="white"/>
<rect x="473.264" y="361.675" width="195.736" height="126.618" rx="20" fill="white"/>
<rect x="240.363" y="361.675" width="220.513" height="126.618" rx="20" fill="white"/>
<rect x="31" y="361.675" width="195.736" height="126.618" rx="20" fill="white"/>
<rect x="265.14" y="506.382" width="170.959" height="126.618" rx="20" fill="white"/>
<rect x="473.264" y="361.675" width="195.736" height="126.618" rx="20" fill="white"/>
<rect x="240.363" y="361.675" width="220.513" height="126.618" rx="20" fill="white"/>
<rect x="31" y="506.382" width="220.513" height="126.618" rx="20" fill="white"/>
<rect x="454.682" y="506.382" width="214.318" height="126.618" rx="20" fill="white"/>
<path d="M259 104.12C258.733 106.573 257.867 108.747 256.4 110.64C254.96 112.507 253.067 113.96 250.72 115C248.373 116.04 245.693 116.56 242.68 116.56C239.32 116.56 236.373 115.907 233.84 114.6C231.307 113.293 229.333 111.48 227.92 109.16C226.507 106.813 225.8 104.093 225.8 101C225.8 97.9067 226.507 95.2 227.92 92.88C229.333 90.5333 231.307 88.7067 233.84 87.4C236.373 86.0933 239.32 85.44 242.68 85.44C245.693 85.44 248.373 85.96 250.72 87C253.067 88.04 254.96 89.4933 256.4 91.36C257.867 93.2267 258.733 95.4 259 97.88H253.68C253.387 96.28 252.747 94.9067 251.76 93.76C250.8 92.6133 249.547 91.7333 248 91.12C246.453 90.48 244.667 90.16 242.64 90.16C240.293 90.16 238.253 90.6 236.52 91.48C234.813 92.36 233.493 93.6133 232.56 95.24C231.627 96.8667 231.16 98.7867 231.16 101C231.16 103.213 231.627 105.133 232.56 106.76C233.493 108.387 234.813 109.64 236.52 110.52C238.253 111.4 240.293 111.84 242.64 111.84C244.667 111.84 246.453 111.533 248 110.92C249.547 110.307 250.8 109.427 251.76 108.28C252.747 107.107 253.387 105.72 253.68 104.12H259ZM270.092 95.16H275.292V116H270.092V95.16ZM260.692 93.36H284.692V97.44H260.692V93.36ZM308.153 116L307.273 107.6L308.313 104.68L307.273 101.8L308.153 93.36H313.513L312.313 104.68L313.513 116H308.153ZM309.753 104.68C309.247 107.053 308.407 109.133 307.233 110.92C306.06 112.707 304.607 114.093 302.873 115.08C301.167 116.067 299.26 116.56 297.153 116.56C294.94 116.56 292.98 116.067 291.273 115.08C289.567 114.067 288.233 112.667 287.273 110.88C286.313 109.093 285.833 107.027 285.833 104.68C285.833 102.307 286.313 100.24 287.273 98.48C288.233 96.6933 289.567 95.3067 291.273 94.32C292.98 93.3067 294.94 92.8 297.153 92.8C299.26 92.8 301.167 93.2933 302.873 94.28C304.607 95.2667 306.06 96.6533 307.233 98.44C308.433 100.2 309.273 102.28 309.753 104.68ZM291.113 104.68C291.113 106.2 291.42 107.547 292.033 108.72C292.673 109.867 293.54 110.773 294.633 111.44C295.727 112.08 296.98 112.4 298.393 112.4C299.833 112.4 301.167 112.08 302.393 111.44C303.62 110.773 304.7 109.867 305.633 108.72C306.593 107.547 307.353 106.2 307.913 104.68C307.353 103.16 306.593 101.827 305.633 100.68C304.7 99.5067 303.62 98.6 302.393 97.96C301.167 97.2933 299.833 96.96 298.393 96.96C296.98 96.96 295.727 97.2933 294.633 97.96C293.54 98.6 292.673 99.5067 292.033 100.68C291.42 101.827 291.113 103.16 291.113 104.68ZM318.518 93.36H323.678V116H318.518V93.36ZM337.758 93.36H342.918V116H337.758V93.36ZM321.438 102.52H339.918V106.52H321.438V102.52ZM377.76 112V121.72H373.24V116H350.6V121.72H346.08V112H351.92L353.36 112.08H369.88L371.16 112H377.76ZM351.12 93.36H373.56V114.48H368.36V94.96L370.76 97.36H353.84L356.08 95.6C356.213 96.7733 356.293 97.9067 356.32 99C356.373 100.067 356.4 101.067 356.4 102C356.4 105.893 355.866 108.947 354.8 111.16C353.76 113.373 352.293 114.48 350.4 114.48L348.28 112.68C350.466 111.08 351.56 107.187 351.56 101C351.56 99.8 351.52 98.56 351.44 97.28C351.36 95.9733 351.253 94.6667 351.12 93.36ZM402.138 116L401.258 107.6L402.298 104.68L401.258 101.8L402.138 93.36H407.498L406.298 104.68L407.498 116H402.138ZM403.738 104.68C403.231 107.053 402.391 109.133 401.218 110.92C400.044 112.707 398.591 114.093 396.858 115.08C395.151 116.067 393.244 116.56 391.138 116.56C388.924 116.56 386.964 116.067 385.258 115.08C383.551 114.067 382.218 112.667 381.258 110.88C380.298 109.093 379.818 107.027 379.818 104.68C379.818 102.307 380.298 100.24 381.258 98.48C382.218 96.6933 383.551 95.3067 385.258 94.32C386.964 93.3067 388.924 92.8 391.138 92.8C393.244 92.8 395.151 93.2933 396.858 94.28C398.591 95.2667 400.044 96.6533 401.218 98.44C402.418 100.2 403.258 102.28 403.738 104.68ZM385.098 104.68C385.098 106.2 385.404 107.547 386.018 108.72C386.658 109.867 387.524 110.773 388.618 111.44C389.711 112.08 390.964 112.4 392.378 112.4C393.818 112.4 395.151 112.08 396.378 111.44C397.604 110.773 398.684 109.867 399.618 108.72C400.578 107.547 401.338 106.2 401.898 104.68C401.338 103.16 400.578 101.827 399.618 100.68C398.684 99.5067 397.604 98.6 396.378 97.96C395.151 97.2933 393.818 96.96 392.378 96.96C390.964 96.96 389.711 97.2933 388.618 97.96C387.524 98.6 386.658 99.5067 386.018 100.68C385.404 101.827 385.098 103.16 385.098 104.68ZM412.502 93.36H417.702V101.24L417.462 102.04V106.6L417.702 108V122.6H412.502V93.36ZM415.702 104.68C416.209 102.28 417.049 100.2 418.222 98.44C419.396 96.6533 420.836 95.2667 422.542 94.28C424.276 93.2933 426.196 92.8 428.302 92.8C430.516 92.8 432.476 93.3067 434.182 94.32C435.889 95.3067 437.222 96.6933 438.182 98.48C439.142 100.24 439.622 102.307 439.622 104.68C439.622 107.027 439.142 109.093 438.182 110.88C437.222 112.667 435.889 114.067 434.182 115.08C432.476 116.067 430.516 116.56 428.302 116.56C426.196 116.56 424.289 116.067 422.582 115.08C420.876 114.093 419.422 112.707 418.222 110.92C417.049 109.133 416.209 107.053 415.702 104.68ZM434.342 104.68C434.342 103.16 434.022 101.827 433.382 100.68C432.769 99.5067 431.916 98.6 430.822 97.96C429.729 97.2933 428.476 96.96 427.062 96.96C425.649 96.96 424.316 97.2933 423.062 97.96C421.836 98.6 420.756 99.5067 419.822 100.68C418.889 101.827 418.129 103.16 417.542 104.68C418.129 106.2 418.889 107.547 419.822 108.72C420.756 109.867 421.836 110.773 423.062 111.44C424.316 112.08 425.649 112.4 427.062 112.4C428.476 112.4 429.729 112.08 430.822 111.44C431.916 110.773 432.769 109.867 433.382 108.72C434.022 107.547 434.342 106.2 434.342 104.68ZM450.17 95.16H455.37V116H450.17V95.16ZM440.77 93.36H464.77V97.44H440.77V93.36Z" fill="#023876"/>
<g clip-path="url(#clip0_31_2)">
<path d="M175.251 55.0525C171.66 54.9867 168.26 56.3839 165.68 58.9861C163.096 61.5882 161.633 65.085 161.564 68.8353C161.496 72.5819 162.828 76.1317 165.317 78.8302C167.805 81.5251 171.15 83.0455 174.737 83.1111C178.323 83.1767 181.723 81.7798 184.308 79.1777C186.893 76.5718 188.353 73.0733 188.422 69.3267C188.491 65.5781 187.159 62.0287 184.673 59.3354C182.186 56.6387 178.84 55.1181 175.251 55.0525ZM182.716 77.4504C180.572 79.6084 177.756 80.7666 174.781 80.7122C171.809 80.6578 169.033 79.3973 166.971 77.1623C164.908 74.9275 163.804 71.9851 163.86 68.8773C163.917 65.7694 165.128 62.8693 167.272 60.7132C169.414 58.5536 172.234 57.3954 175.207 57.4498C178.181 57.5042 180.953 58.7647 183.017 61.0013C185.079 63.2343 186.183 66.1768 186.126 69.2847C186.069 72.3925 184.858 75.2925 182.716 77.4504Z" fill="white"/>
<path d="M206.057 65.0506L198.921 63.836C198.473 63.7919 198.092 63.4906 197.927 63.0514L195.715 57.1611C195.55 56.7237 195.631 56.2297 195.931 55.8798L200.321 49.9486C201.018 49.1267 200.996 47.8857 200.267 47.0972L196.945 43.4966C196.563 43.0802 196.051 42.8646 195.536 42.8552C195.072 42.8467 194.604 43.005 194.221 43.3355L188.386 47.7038C188.165 47.8954 187.887 47.9926 187.608 47.9875C187.454 47.9846 187.3 47.9495 187.155 47.8841L181.599 45.3555C181.189 45.1703 180.913 44.7559 180.885 44.2905L179.983 36.7944C179.922 35.6981 179.065 34.8389 178.018 34.8198L173.226 34.7321C172.177 34.7129 171.289 35.5402 171.188 36.6334L170.011 44.0915C169.968 44.5556 169.679 44.9597 169.26 45.1314L163.615 47.4532C163.467 47.5132 163.311 47.5427 163.157 47.5399C162.879 47.5348 162.606 47.4275 162.39 47.2279L156.722 42.651C156.352 42.3067 155.89 42.1295 155.428 42.1211C154.911 42.1116 154.392 42.3104 153.993 42.7123L150.541 46.1871C149.785 46.9505 149.718 48.1878 150.383 49.0347L154.552 55.1224C154.836 55.4829 154.903 55.9795 154.723 56.4108L152.296 62.2181C152.12 62.6492 151.722 62.9365 151.277 62.9641L144.098 63.9187C143.052 63.9858 142.228 64.8825 142.208 65.9789L142.117 70.9816C142.097 72.08 142.887 73.0062 143.93 73.1112L151.069 74.3262C151.513 74.372 151.9 74.6753 152.06 75.1107L154.273 81.0045C154.438 81.4385 154.352 81.9357 154.055 82.2858L149.666 88.2169C148.971 89.0351 148.992 90.2778 149.72 91.0666L153.042 94.6672C153.426 95.0834 153.938 95.299 154.453 95.3084C154.916 95.3169 155.385 95.1585 155.767 94.828L161.599 90.4598C161.822 90.2681 162.099 90.1728 162.377 90.1779C162.532 90.1807 162.685 90.2139 162.832 90.2812L168.388 92.8084C168.8 92.9955 169.076 93.4061 169.102 93.8751L170.004 101.371C170.064 102.464 170.921 103.325 171.971 103.344L176.762 103.432C177.811 103.451 178.697 102.622 178.8 101.532L179.974 94.074C180.019 93.6065 180.309 93.2063 180.727 93.0342L186.371 90.7123C186.52 90.6504 186.675 90.6229 186.83 90.6257C187.108 90.6308 187.383 90.7362 187.597 90.9359L193.266 95.5146C193.637 95.8588 194.099 96.0342 194.563 96.0427C195.078 96.0522 195.597 95.8552 195.994 95.4535L199.445 91.9768C200.205 91.2153 200.27 89.9742 199.604 89.131L195.434 83.0433C195.152 82.6827 195.084 82.1824 195.265 81.755L197.691 75.9461C197.872 75.5166 198.264 75.2277 198.713 75.1983L205.889 74.2453C206.936 74.1784 207.76 73.2816 207.78 72.1871L207.872 67.1808C207.892 66.084 207.101 65.1577 206.057 65.0506ZM205.489 71.879L198.482 72.8099C197.21 72.9284 196.109 73.7538 195.587 74.99L193.163 80.7899C192.644 82.0225 192.813 83.4295 193.599 84.4885L197.672 90.4344L194.584 93.5441L189.049 89.0739C188.44 88.5404 187.671 88.2391 186.874 88.2245C186.408 88.216 185.953 88.3046 185.534 88.48L179.884 90.8033C178.688 91.2985 177.859 92.4194 177.699 93.7448L176.552 101.027L172.269 100.949L171.388 93.6311C171.278 92.3007 170.492 91.1485 169.308 90.6062L163.758 88.085C163.334 87.8887 162.884 87.7854 162.421 87.7769C161.627 87.7624 160.849 88.0353 160.22 88.5442L154.521 92.8107L151.551 89.5902L155.837 83.7971C156.663 82.7674 156.883 81.366 156.411 80.124L154.203 74.2429C153.738 72.9851 152.664 72.1146 151.389 71.9477L144.417 70.7609L144.499 66.282L151.507 65.3512C152.792 65.2348 153.898 64.4005 154.4 63.1748L156.823 57.3746C157.344 56.142 157.176 54.7335 156.388 53.6763L152.315 47.7285L155.404 44.6186L160.938 49.0888C161.548 49.624 162.316 49.9236 163.113 49.9382C163.573 49.9466 164.025 49.8614 164.454 49.6846L170.097 47.3627C171.297 46.8712 172.13 45.7468 172.286 44.4177L173.436 37.1367L177.719 37.215L178.599 44.5368C178.712 45.8707 179.504 47.0234 180.679 47.5545L186.235 50.0831C186.656 50.2737 187.104 50.3772 187.564 50.3856C188.363 50.4002 189.143 50.1273 189.77 49.6164L195.466 45.3517L198.437 48.5724L194.153 54.3601C193.324 55.3861 193.102 56.7891 193.578 58.0381L195.789 63.9321C196.261 65.1828 197.334 66.0496 198.604 66.213L205.571 67.3995L205.489 71.879Z" fill="white"/>
<path d="M143.525 52.5836L147.077 51.3023C147.857 51.0222 148.297 50.1632 148.092 49.3319L147.039 43.5114C146.953 43.1508 147.065 42.7758 147.327 42.533L150.89 39.2381C151.066 39.0744 151.295 38.9907 151.523 38.9949C151.635 38.9969 151.746 39.0187 151.85 39.06L157.207 40.84C157.389 40.9151 157.577 40.9526 157.763 40.9542C158.357 40.9633 158.929 40.6165 159.204 40.0293L160.851 36.5C161.217 35.7259 160.945 34.7929 160.237 34.358L155.599 31.0493C155.297 30.8626 155.119 30.5165 155.143 30.1471L155.437 25.1894C155.459 24.8218 155.676 24.5026 155.995 24.3543L161.04 21.6357C161.797 21.2941 162.173 20.3999 161.906 19.5891L160.687 15.8782C160.467 15.208 159.87 14.7789 159.221 14.769C159.082 14.7683 158.941 14.7835 158.801 14.8224L153.228 15.9284C153.145 15.9521 153.061 15.9631 152.979 15.9616C152.721 15.9587 152.472 15.8393 152.294 15.6316L149.15 11.9156C148.914 11.6405 148.847 11.2531 148.979 10.9128L150.689 5.31128C150.991 4.51103 150.657 3.60728 149.915 3.22926L146.54 1.51082C146.325 1.40266 146.097 1.34837 145.873 1.34425C145.321 1.33756 144.787 1.63311 144.49 2.15888L141.314 7.01189C141.142 7.31388 140.83 7.49647 140.495 7.49214L140.454 7.49139L135.707 7.18927C135.357 7.16489 135.045 6.93852 134.907 6.6039L132.315 1.33982C132.064 0.728538 131.495 0.355682 130.892 0.348046C130.715 0.344809 130.534 0.373852 130.358 0.436924L126.806 1.71988C126.026 2.00016 125.584 2.85716 125.792 3.68851L126.844 9.51091C126.932 9.86618 126.82 10.2428 126.556 10.4858L122.993 13.7808C122.813 13.9463 122.588 14.0302 122.358 14.0278C122.248 14.0258 122.137 14.0022 122.029 13.9571L116.675 12.1827C116.492 12.1057 116.304 12.0683 116.118 12.0649C115.526 12.0574 114.956 12.4027 114.679 12.9899L113.032 16.5209C112.668 17.2933 112.937 18.2244 113.646 18.6627L118.284 21.9733C118.588 22.1584 118.764 22.5045 118.74 22.8685L118.446 27.8297C118.426 28.1956 118.205 28.5165 117.886 28.665L112.841 31.3836C112.086 31.725 111.71 32.6176 111.977 33.4285L113.196 37.1393C113.418 37.8094 114.014 38.2421 114.664 38.2521C114.801 38.2529 114.94 38.2338 115.08 38.1953L120.656 37.0875C120.738 37.0657 120.82 37.0546 120.901 37.0561C121.16 37.0608 121.411 37.1768 121.587 37.3845L124.733 41.1039C124.969 41.3774 125.032 41.7664 124.904 42.1087L123.193 47.7065C122.892 48.5069 123.228 49.4123 123.968 49.7923L127.341 51.5087C127.557 51.6169 127.785 51.6712 128.01 51.6753C128.561 51.6818 129.096 51.3882 129.391 50.8624L132.566 46.0112C132.737 45.7092 133.046 45.5243 133.377 45.5304L133.429 45.5313L138.174 45.8318C138.525 45.8527 138.836 46.079 138.976 46.4154L141.568 51.6827C141.821 52.2904 142.388 52.6635 142.993 52.6727C143.168 52.6739 143.349 52.6467 143.525 52.5836ZM141.042 45.3637C140.539 44.2434 139.501 43.5081 138.315 43.4379L133.588 43.1397C133.529 43.135 133.471 43.1304 133.413 43.1293C132.298 43.1161 131.243 43.7142 130.644 44.6978L127.788 49.063L125.538 47.9179L127.077 42.8896C127.477 41.7213 127.241 40.4335 126.456 39.5143L123.315 35.8006C122.715 35.0859 121.848 34.6699 120.936 34.6584C120.682 34.6537 120.427 34.6814 120.18 34.7416L115.165 35.7376L114.354 33.2671L118.893 30.8228C119.966 30.2878 120.672 29.2002 120.737 27.9721L121.032 23.0252C121.111 21.7846 120.54 20.6181 119.537 19.9571L115.369 16.9836L116.467 14.6307L121.283 16.2302C121.618 16.3549 121.967 16.4186 122.324 16.4252C123.128 16.4363 123.902 16.1383 124.513 15.575L128.066 12.2905C128.966 11.467 129.353 10.2176 129.088 9.0064L128.144 3.77288L130.51 2.91873L132.84 7.65682C133.346 8.77378 134.38 9.50882 135.566 9.58244L140.317 9.88485L140.46 9.89105C141.583 9.90621 142.64 9.3045 143.239 8.31917L146.095 3.95396L148.345 5.09885L146.808 10.1238C146.402 11.2938 146.637 12.5797 147.427 13.5024L150.573 17.22C151.173 17.9327 152.038 18.3472 152.944 18.3583C153.201 18.3612 153.456 18.3338 153.708 18.2773L158.718 17.2794L159.529 19.7515L154.988 22.1993C153.929 22.7257 153.225 23.8006 153.144 25.0448L152.849 29.9881C152.77 31.2307 153.341 32.397 154.346 33.0616L158.512 36.0367L157.414 38.3914L152.599 36.7902C152.265 36.6654 151.916 36.5999 151.557 36.5951C150.748 36.5819 149.969 36.8874 149.37 37.4418L145.803 40.7386C144.917 41.5623 144.535 42.8084 144.793 44.0121L145.74 49.2491L143.373 50.0998L141.042 45.3637Z" fill="white"/>
<path d="M146.849 31.5534C148.142 28.7839 148.328 25.6568 147.371 22.7493C146.412 19.8402 144.43 17.4954 141.788 16.1529C140.313 15.399 138.739 15.0057 137.113 14.9832C135.842 14.9653 134.58 15.1791 133.363 15.6183C130.574 16.6226 128.327 18.6979 127.034 21.4654C125.741 24.2295 125.555 27.3545 126.51 30.2692C127.471 33.1804 129.455 35.525 132.097 36.8675C133.571 37.6178 135.144 38.0126 136.77 38.0354C138.043 38.0515 139.304 37.8377 140.524 37.4003C143.306 36.3961 145.551 34.319 146.849 31.5534ZM139.776 35.1323C138.806 35.4826 137.802 35.6491 136.804 35.6345C135.536 35.6185 134.277 35.3081 133.105 34.7105C131.01 33.6435 129.443 31.7874 128.682 29.485C127.928 27.1791 128.072 24.7047 129.097 22.5154C130.121 20.3227 131.902 18.6788 134.107 17.8865C135.078 17.5344 136.083 17.3679 137.079 17.3825C138.347 17.4001 139.604 17.7105 140.777 18.3082C142.87 19.375 144.441 21.2311 145.199 23.5335C145.956 25.8379 145.809 28.3104 144.786 30.5032C143.758 32.694 141.981 34.3363 139.776 35.1323Z" fill="white"/>
</g>
<path d="M349.591 719.5L407.181 673H292L349.591 719.5Z" fill="#8FD2FC"/>
<defs>
<clipPath id="clip0_31_2">
<rect width="97.8376" height="102.227" fill="white" transform="translate(111.87) rotate(1.04825)"/>
</clipPath>
</defs>
</svg>
